<?xml version="1.0" standalone="no"?>
<!DOCTYPE svg PUBLIC "-//W3C//DTD SVG 20010904//EN"
 "http://www.w3.org/TR/2001/REC-SVG-20010904/DTD/svg10.dtd">
<svg version="1.0" xmlns="http://www.w3.org/2000/svg"
 width="854.000000pt" height="854.000000pt" viewBox="0 0 854.000000 854.000000"
 preserveAspectRatio="xMidYMid meet">
<metadata>
Created by potrace 1.14, written by Peter Selinger 2001-2017
</metadata>
<g transform="translate(0.000000,854.000000) scale(0.100000,-0.100000)"
fill="#000000" stroke="none">
<path d="M4750 7985 c7 -8 5 -12 -5 -12 -8 0 -15 4 -15 9 0 5 -5 6 -10 3 -6
-4 -7 -12 -3 -18 5 -8 2 -8 -9 0 -8 7 -18 9 -22 5 -4 -4 -13 -7 -19 -7 -7 -1
-11 -7 -9 -14 1 -7 -2 -10 -8 -6 -6 4 -18 1 -27 -7 -14 -11 -15 -11 -9 0 7 11
4 11 -12 1 -12 -7 -18 -17 -16 -21 3 -4 0 -8 -5 -8 -6 0 -11 6 -11 13 0 9 -3
8 -9 -2 -5 -7 -14 -10 -20 -7 -6 4 -11 0 -11 -8 0 -9 -5 -16 -11 -16 -5 0 -8
4 -5 9 4 5 -2 8 -11 6 -10 -2 -22 -4 -26 -4 -5 -1 -6 -5 -3 -10 3 -4 -4 -8
-17 -7 -13 1 -21 -4 -19 -12 2 -10 -2 -10 -18 -2 -16 8 -20 8 -18 -2 2 -7 -3
-12 -9 -10 -7 1 -13 -2 -13 -8 0 -5 -3 -9 -7 -9 -24 4 -35 -3 -29 -17 5 -14 4
-15 -8 -5 -11 10 -18 7 -31 -11 -10 -13 -15 -16 -12 -8 3 10 -2 16 -13 16 -15
0 -17 -4 -8 -21 10 -18 10 -19 -5 -6 -10 7 -17 10 -17 5 0 -5 -5 -2 -10 6 -8
12 -10 10 -11 -10 0 -14 -3 -19 -6 -12 -2 6 -9 12 -14 12 -6 0 -7 -5 -3 -12 5
-8 2 -9 -9 -5 -19 7 -50 -20 -41 -35 4 -7 2 -8 -4 -4 -6 4 -8 14 -5 23 4 11 3
14 -5 9 -7 -4 -12 -14 -12 -22 0 -8 -4 -12 -10 -9 -5 3 -10 1 -10 -4 0 -6 5
-11 12 -11 6 0 9 -3 6 -6 -4 -3 -17 0 -30 7 -21 11 -22 11 -9 -4 12 -15 11
-17 -5 -17 -16 0 -17 -2 -4 -10 14 -9 2 -15 -16 -7 -8 2 -28 -44 -25 -56 1 -5
-3 -6 -9 -2 -8 5 -7 12 1 23 7 10 1 6 -13 -8 -16 -16 -21 -27 -14 -32 7 -5 5
-8 -6 -8 -12 0 -16 -6 -13 -21 3 -16 1 -18 -8 -10 -10 7 -13 4 -14 -12 -1 -12
-7 -23 -13 -25 -5 -2 -10 -13 -10 -23 0 -13 -4 -18 -12 -13 -8 5 -9 2 -5 -9 4
-11 1 -17 -7 -17 -7 0 -20 -8 -27 -17 -13 -16 -12 -17 3 -5 12 10 18 10 24 1
4 -7 3 -9 -2 -6 -5 3 -21 -4 -34 -15 -14 -11 -18 -16 -10 -12 12 6 13 5 3 -8
-7 -8 -9 -19 -5 -24 4 -4 0 -3 -10 4 -10 8 -19 9 -22 3 -4 -5 -2 -12 4 -16 5
-3 10 -11 10 -16 0 -6 -4 -8 -9 -5 -11 7 -23 -22 -14 -36 3 -6 1 -8 -4 -5 -6
4 -19 -1 -30 -11 -10 -9 -12 -12 -3 -7 13 9 13 8 1 -8 -9 -12 -17 -14 -26 -7
-13 11 -25 4 -25 -14 0 -6 5 -4 11 4 9 13 10 13 6 0 -2 -8 -11 -14 -20 -14 -9
1 -16 -1 -15 -5 2 -20 -3 -31 -14 -25 -8 5 -9 0 -5 -15 3 -15 0 -24 -10 -28
-12 -5 -12 -7 -1 -14 7 -5 9 -9 3 -9 -5 0 -10 -17 -10 -38 0 -20 -4 -43 -9
-49 -5 -8 -4 -13 3 -13 8 0 9 -6 2 -18 -6 -11 -6 -24 0 -35 7 -12 6 -17 -3
-17 -8 0 -9 -3 -3 -8 6 -4 12 -20 14 -37 1 -16 8 -33 13 -36 6 -4 8 -14 5 -23
-4 -9 -2 -16 4 -16 6 0 9 -7 6 -15 -4 -8 -2 -17 4 -20 5 -4 7 -11 4 -16 -4 -5
-2 -9 3 -9 6 0 9 -14 8 -31 -1 -18 4 -34 13 -39 14 -8 14 -9 1 -10 -12 0 -13
-2 -1 -9 8 -5 12 -19 9 -35 -3 -14 -1 -23 3 -20 5 3 9 -4 9 -15 0 -12 5 -21
10 -21 6 0 10 -5 10 -11 0 -5 -6 -7 -12 -3 -9 5 -9 2 1 -9 7 -9 15 -32 18 -49
2 -18 5 -42 6 -53 1 -11 6 -26 10 -32 5 -8 3 -13 -5 -13 -9 0 -9 -3 2 -10 8
-5 12 -10 8 -10 -4 0 -3 -11 2 -24 5 -13 6 -27 2 -31 -4 -3 -7 -25 -9 -48 -1
-36 -6 -69 -13 -87 -1 -3 -2 -9 -1 -14 1 -5 -5 -26 -13 -46 -8 -21 -12 -40 -9
-44 4 -3 2 -6 -4 -6 -6 0 -13 -13 -15 -29 -3 -20 -1 -28 6 -24 7 5 7 2 0 -8
-6 -8 -10 -22 -9 -31 2 -10 -2 -18 -8 -18 -7 0 -5 -5 3 -10 13 -9 13 -10 0
-10 -13 0 -13 -1 0 -10 13 -9 13 -10 0 -10 -13 0 -13 -1 0 -10 13 -9 13 -10 0
-10 -13 0 -13 -1 0 -10 13 -9 13 -10 0 -10 -13 0 -13 -1 0 -10 13 -9 13 -10 0
-10 -13 0 -13 -1 0 -10 13 -9 13 -10 0 -10 -13 0 -13 -1 0 -10 13 -9 13 -10 0
-10 -13 0 -13 -1 0 -10 13 -9 13 -10 0 -10 -9 0 -11 -3 -5 -8 6 -4 11 -38 11
-77 1 -38 5 -79 10 -89 6 -15 4 -17 -7 -11 -11 7 -12 6 -3 -6 13 -17 16 -40
17 -156 1 -51 5 -93 10 -93 4 0 3 -9 -3 -20 -6 -11 -7 -20 -2 -20 5 0 8 -14 7
-30 -1 -17 1 -33 6 -35 4 -3 6 -14 4 -25 -2 -11 0 -20 4 -20 5 0 7 -11 6 -25
-2 -14 2 -25 8 -25 7 0 5 -5 -3 -10 -11 -7 -11 -10 -2 -10 7 0 11 -4 7 -9 -3
-5 -1 -12 4 -15 5 -3 7 -15 4 -26 -3 -11 -1 -20 4 -20 5 0 9 -10 10 -22 1 -11
8 -25 15 -29 7 -5 10 -9 5 -9 -4 0 -1 -15 7 -34 8 -19 12 -37 8 -40 -3 -3 0
-6 6 -6 6 0 13 -14 17 -30 4 -17 11 -28 16 -25 5 4 6 -1 3 -9 -4 -9 1 -18 10
-22 9 -3 13 -10 10 -15 -3 -5 2 -12 11 -15 13 -6 14 -8 3 -15 -9 -6 -9 -9 -1
-9 6 0 10 -9 8 -20 -2 -11 0 -18 6 -15 8 6 13 -8 10 -27 0 -5 4 -8 10 -8 5 0
8 -4 4 -9 -3 -5 -1 -12 5 -16 6 -4 7 -11 4 -17 -4 -7 -2 -8 4 -4 11 6 16 -6
13 -26 0 -5 5 -8 13 -8 12 0 25 -23 30 -53 0 -4 6 -11 12 -15 6 -4 10 -15 8
-24 -1 -10 3 -18 9 -18 7 0 5 -5 -3 -10 -8 -5 -10 -10 -4 -10 15 0 11 -58 -6
-73 -10 -9 -11 -9 -6 1 13 22 -9 13 -28 -13 -10 -13 -21 -23 -25 -21 -6 4 -24
-12 -32 -29 -2 -5 -7 -9 -11 -8 -7 3 -12 -20 -9 -39 0 -5 -4 -8 -9 -8 -6 0
-10 -6 -10 -14 0 -8 -8 -17 -17 -20 -13 -5 -14 -9 -5 -15 10 -6 10 -11 -2 -21
-9 -7 -13 -16 -10 -21 3 -5 -2 -12 -10 -15 -9 -3 -14 -10 -11 -14 3 -4 -2 -13
-10 -20 -7 -6 -12 -17 -9 -24 3 -7 -6 -21 -20 -31 -14 -11 -22 -24 -18 -33 3
-10 1 -13 -6 -8 -7 4 -12 2 -12 -5 0 -7 -3 -9 -7 -6 -3 4 -12 -2 -20 -13 -8
-11 -20 -17 -28 -14 -8 4 -15 2 -15 -4 0 -5 -7 -13 -16 -16 -12 -5 -14 -3 -8
7 5 7 1 4 -8 -6 -10 -11 -18 -14 -18 -8 0 7 -5 9 -10 6 -6 -4 -8 -11 -5 -16 3
-5 -2 -6 -11 -2 -10 4 -15 2 -11 -3 3 -6 -3 -15 -13 -22 -17 -10 -18 -9 -13 6
4 13 0 11 -16 -6 -13 -12 -27 -19 -34 -15 -8 4 -7 1 1 -9 11 -14 10 -16 -7
-11 -12 3 -21 1 -21 -6 0 -6 -7 -11 -15 -11 -8 0 -15 -4 -15 -10 0 -5 -7 -7
-15 -4 -8 4 -15 1 -15 -6 0 -7 -7 -10 -16 -6 -8 3 -12 2 -9 -4 3 -6 1 -10 -5
-10 -6 0 -8 -4 -5 -10 5 -9 -15 -15 -38 -11 -4 1 -10 -6 -13 -14 -3 -8 -10
-13 -14 -10 -5 3 -15 -2 -23 -10 -12 -11 -17 -12 -20 -2 -4 7 -6 6 -6 -4 -1
-11 -8 -15 -23 -12 -14 3 -32 -4 -45 -16 -15 -14 -23 -17 -26 -8 -4 9 -6 9 -6
-1 -1 -7 -6 -10 -13 -6 -8 5 -9 2 -5 -10 5 -14 3 -15 -13 -6 -12 6 -21 7 -25
0 -3 -5 -13 -6 -22 -3 -12 5 -14 3 -8 -7 6 -9 4 -11 -5 -5 -22 13 -71 14 -60
1 6 -8 3 -12 -10 -12 -10 0 -16 4 -14 8 3 4 0 8 -5 8 -6 0 -11 -4 -11 -9 0 -5
-7 -11 -14 -14 -11 -4 -13 -1 -9 10 5 13 3 14 -16 3 -13 -6 -25 -9 -28 -6 -3
3 -12 -2 -20 -12 -8 -9 -12 -12 -9 -6 8 15 -21 26 -30 12 -4 -7 -3 -8 4 -4 18
11 14 0 -5 -15 -9 -8 -14 -9 -10 -3 4 7 -6 10 -29 10 -26 -1 -33 -5 -29 -16 3
-9 -1 -7 -10 4 -8 11 -15 15 -15 9 0 -6 -11 -9 -25 -8 -13 2 -29 -3 -35 -10
-6 -8 -17 -12 -24 -9 -6 2 -21 -4 -33 -15 -15 -14 -23 -17 -26 -8 -4 9 -6 9
-6 -1 -1 -7 -5 -10 -11 -7 -5 3 -10 1 -10 -5 0 -6 -4 -9 -9 -5 -5 3 -13 0 -16
-6 -4 -5 -13 -8 -20 -5 -8 3 -19 -2 -25 -9 -7 -8 -16 -12 -21 -9 -5 3 -9 0 -9
-6 0 -6 -4 -9 -9 -5 -6 3 -14 -3 -20 -12 -6 -10 -11 -14 -11 -9 0 5 -8 2 -17
-5 -14 -12 -16 -12 -8 0 6 10 4 12 -4 7 -7 -5 -10 -15 -6 -23 4 -12 2 -13 -8
-5 -10 8 -16 6 -25 -9 -7 -11 -17 -17 -22 -14 -5 3 -21 3 -35 -1 -20 -5 -23
-9 -13 -15 9 -6 7 -9 -10 -9 -13 0 -34 -11 -48 -25 -14 -14 -23 -25 -20 -25 3
0 -8 -14 -24 -32 -16 -17 -27 -34 -25 -38 2 -3 -7 -19 -21 -35 -13 -15 -24
-32 -24 -37 0 -5 -5 -6 -10 -3 -9 6 -15 -8 -11 -29 1 -5 -5 -4 -13 4 -12 9
-16 9 -16 0 0 -6 -5 -10 -12 -8 -20 7 -68 -50 -69 -82 -1 -3 -4 -9 -9 -15 -4
-5 -6 -19 -4 -30 1 -10 -1 -24 -6 -30 -8 -10 -10 -16 -10 -36 0 -5 -6 -7 -13
-3 -7 5 -7 2 2 -10 12 -15 12 -17 0 -14 -8 2 -13 -3 -11 -10 1 -8 -2 -11 -7
-7 -6 3 -18 -6 -27 -20 -9 -13 -20 -22 -25 -19 -5 3 -9 -4 -9 -15 0 -13 -7
-21 -17 -21 -9 0 -13 -3 -10 -6 4 -4 -3 -15 -14 -25 -12 -10 -18 -23 -14 -28
3 -6 -1 -11 -9 -11 -10 0 -13 -6 -10 -15 4 -8 1 -15 -6 -15 -6 0 -8 -4 -5 -10
3 -5 2 -10 -2 -10 -8 0 -12 -17 -14 -62 0 -10 -6 -17 -12 -15 -7 1 -11 -6 -9
-15 2 -10 -2 -18 -8 -18 -5 0 -10 -7 -10 -15 0 -8 -6 -14 -12 -12 -7 1 -12 -6
-12 -15 1 -10 -1 -17 -5 -16 -19 2 -31 -4 -28 -14 1 -7 -4 -12 -12 -10 -9 2
-11 -3 -7 -13 3 -9 2 -14 -3 -11 -26 16 -52 -47 -52 -126 0 -10 -5 -18 -12
-18 -8 0 -8 -3 0 -11 7 -7 5 -21 -7 -47 -10 -20 -16 -40 -13 -44 2 -5 0 -8 -5
-8 -9 0 -10 -7 -13 -55 -1 -14 -6 -22 -12 -18 -6 4 -8 -2 -5 -15 4 -12 2 -20
-3 -16 -7 4 -12 -6 -8 -18 0 -2 -6 -16 -15 -32 -8 -16 -13 -33 -11 -37 3 -4
-2 -10 -11 -13 -13 -5 -14 -9 -4 -21 9 -11 9 -15 1 -15 -7 0 -10 -4 -6 -9 3
-6 -3 -14 -12 -20 -14 -8 -15 -11 -3 -11 12 -1 11 -3 -3 -14 -14 -11 -15 -15
-5 -19 8 -3 6 -6 -5 -6 -10 -1 -16 -5 -12 -10 3 -5 -1 -16 -9 -24 -8 -8 -12
-17 -9 -21 3 -3 -2 -8 -11 -12 -14 -5 -14 -9 -4 -22 11 -13 11 -14 -1 -7 -11
6 -13 4 -8 -7 3 -9 0 -21 -6 -27 -10 -10 -17 -30 -19 -58 -1 -7 -8 -15 -16
-18 -8 -3 -12 -12 -8 -20 3 -8 2 -14 -2 -14 -18 3 -35 -2 -29 -8 4 -3 -1 -11
-10 -18 -9 -7 -18 -23 -20 -36 -2 -13 -9 -27 -16 -31 -9 -6 -9 -8 1 -8 9 0 10
-5 4 -17 -5 -10 -8 -26 -7 -36 2 -9 -1 -15 -6 -11 -5 3 -9 -3 -9 -13 0 -14 -2
-15 -9 -4 -7 11 -11 9 -20 -8 -7 -11 -18 -21 -26 -21 -8 0 -19 -10 -26 -21 -9
-17 -8 -20 3 -13 11 6 11 5 -1 -9 -7 -9 -10 -17 -5 -17 5 0 2 -5 -6 -10 -13
-9 -13 -10 0 -10 13 0 13 -1 0 -10 -8 -5 -10 -10 -5 -10 15 0 13 -103 -2 -113
-6 -4 -10 -16 -8 -27 2 -11 0 -20 -6 -20 -5 0 -9 -7 -9 -15 0 -8 -5 -15 -11
-15 -5 0 -8 -4 -4 -9 3 -5 1 -12 -5 -16 -6 -4 -8 -10 -5 -15 3 -5 1 -11 -5
-15 -5 -3 -10 -10 -10 -14 0 -21 258 -264 407 -383 23 -18 54 -43 70 -56 71
-58 291 -207 419 -284 521 -314 1154 -525 1749 -584 39 -4 84 -9 100 -11 63
-9 555 -10 645 -2 52 4 124 11 160 14 77 7 306 42 367 56 24 5 60 12 81 15 20
3 45 10 55 15 9 5 17 8 17 5 0 -3 23 2 52 10 28 9 59 17 67 19 100 20 385 116
536 181 192 82 359 163 410 198 17 12 31 19 33 18 4 -4 318 188 340 208 9 8
37 29 62 45 58 39 47 31 175 133 144 115 146 116 227 192 170 156 369 370 458
490 14 18 44 57 68 86 23 29 42 57 42 62 0 6 4 12 8 14 5 2 30 34 55 72 47 68
47 69 43 137 -3 38 -7 73 -11 78 -3 5 -2 12 3 15 4 2 7 34 6 70 -1 42 3 66 10
66 6 0 4 5 -4 10 -8 5 -10 10 -5 10 6 0 10 30 10 70 0 39 4 70 9 70 4 0 4 6
-1 13 -6 6 -9 31 -7 54 1 24 -2 45 -7 49 -5 3 -7 10 -3 15 11 18 11 68 0 73
-6 3 -5 5 2 5 10 1 10 6 1 22 -8 15 -8 19 0 15 8 -5 8 0 1 19 -12 32 -12 38
-2 31 5 -3 7 5 6 17 -1 12 -3 22 -4 22 -1 0 -3 60 -5 133 -1 73 -5 135 -8 139
-4 3 -2 12 4 20 8 9 8 13 0 13 -6 0 -9 13 -7 30 2 17 0 30 -3 30 -4 0 -6 14
-5 30 1 17 -3 30 -8 30 -6 0 -5 6 2 15 9 11 9 15 1 15 -7 0 -10 4 -7 9 4 5 0
12 -6 14 -9 4 -9 6 -1 6 8 1 9 10 3 32 -5 18 -7 36 -4 40 3 5 0 9 -6 9 -7 0
-9 8 -5 20 4 13 2 20 -6 20 -10 0 -10 3 -1 12 9 9 8 16 -6 32 -9 11 -11 16 -5
12 9 -5 11 -2 7 8 -3 9 -10 16 -14 16 -4 0 -6 11 -5 25 2 14 -1 25 -6 25 -5 0
-9 6 -9 13 0 20 -30 77 -40 77 -5 0 -6 7 -3 17 4 10 2 14 -5 9 -10 -6 -29 29
-24 46 1 4 -5 5 -13 2 -8 -4 -15 -1 -15 6 0 6 -5 8 -12 4 -8 -5 -7 0 2 11 8
10 11 16 5 13 -12 -7 -37 17 -28 26 4 3 1 6 -6 6 -16 0 -42 26 -34 34 4 3 -2
6 -11 6 -13 0 -16 5 -12 17 4 10 4 14 0 10 -4 -4 -14 2 -22 14 -11 16 -17 18
-28 8 -9 -7 -14 -8 -13 -3 3 19 -1 44 -8 43 -19 -3 -34 2 -29 10 3 4 -4 17
-17 27 -12 10 -16 12 -9 4 6 -8 12 -19 12 -25 0 -5 -8 2 -18 18 -10 15 -22 24
-25 20 -4 -3 -7 1 -7 11 0 9 -8 20 -17 23 -9 4 -25 15 -36 26 -10 10 -25 16
-33 13 -13 -5 -19 6 -15 27 1 5 -2 6 -6 4 -5 -3 -19 1 -33 10 -14 8 -17 12 -7
9 11 -3 15 -2 12 4 -3 6 -17 10 -31 10 -14 0 -22 4 -19 10 5 9 -16 15 -38 11
-5 -1 -6 3 -2 9 3 5 -1 10 -9 10 -29 0 -31 1 -43 23 -7 13 -12 16 -13 8 0 -9
-6 -7 -19 8 -14 16 -21 18 -24 9 -3 -7 -6 -4 -6 7 -1 17 -3 17 -11 5 -8 -13
-10 -12 -10 4 0 16 -2 17 -17 5 -11 -10 -14 -10 -9 -1 5 8 0 12 -13 12 -12 0
-21 3 -21 8 0 4 -11 12 -25 19 -16 7 -23 7 -18 1 3 -7 1 -8 -5 -4 -7 4 -12 14
-12 23 0 11 -3 13 -12 5 -14 -11 -43 10 -31 22 4 3 -3 6 -15 6 -25 0 -61 18
-79 40 -7 8 -13 11 -13 7 0 -4 -10 2 -22 13 -12 11 -28 18 -36 15 -7 -2 -11
-1 -8 4 3 5 -1 12 -10 15 -8 3 -12 10 -9 16 3 5 0 7 -8 4 -8 -3 -21 2 -29 10
-12 11 -18 12 -28 3 -9 -8 -11 -8 -7 -1 8 13 -16 37 -26 27 -4 -3 -7 2 -7 13
0 16 -2 17 -10 4 -5 -8 -10 -10 -10 -4 0 7 -9 14 -21 17 -13 4 -18 10 -13 18
4 8 3 10 -5 5 -6 -4 -9 -13 -5 -19 3 -7 -1 -4 -9 6 -15 18 -32 24 -22 7 10
-16 -2 -12 -21 8 -10 9 -33 17 -53 17 -22 0 -35 5 -34 12 2 7 -4 10 -12 7 -9
-4 -23 0 -32 7 -10 8 -14 9 -10 2 5 -8 -2 -11 -22 -11 -18 1 -28 5 -24 11 4 6
1 7 -7 2 -17 -11 -90 -13 -96 -3 -3 4 -11 5 -19 2 -8 -4 -12 -11 -8 -18 4 -6
-1 -5 -10 3 -9 7 -17 10 -17 6 0 -4 -7 -2 -15 5 -13 11 -14 10 -10 -3 4 -8 1
-18 -5 -22 -6 -4 -9 -1 -8 7 2 7 -5 12 -14 12 -10 -1 -16 2 -13 6 3 5 1 11 -5
15 -5 3 -10 17 -10 29 0 13 -6 29 -14 35 -8 7 -12 21 -9 31 3 12 0 20 -8 20
-7 0 -9 3 -6 7 4 3 -1 15 -10 26 -13 15 -14 19 -3 13 12 -6 11 -4 -1 6 -9 7
-15 21 -13 31 1 9 -2 15 -6 12 -5 -3 -11 4 -15 15 -4 11 -10 18 -15 15 -5 -3
-7 3 -5 14 2 12 -7 30 -22 45 -14 14 -25 37 -25 51 0 14 -3 25 -7 25 -3 0 -7
11 -7 25 -1 16 2 23 10 19 6 -3 2 2 -8 10 -11 9 -14 16 -8 16 14 0 12 21 -3
33 -7 4 -6 10 0 15 10 6 15 30 19 92 0 14 4 30 9 37 4 6 1 14 -5 16 -10 4 -10
6 -1 6 7 1 10 8 7 16 -4 8 -2 15 3 15 5 0 8 18 8 40 0 22 4 40 9 40 6 0 5 5
-2 12 -7 7 -8 17 -2 29 6 11 6 20 1 23 -10 7 14 61 31 72 6 4 8 3 5 -3 -4 -6
1 -14 11 -18 24 -10 63 -12 68 -3 3 4 11 5 20 1 12 -4 12 -8 2 -22 -7 -9 -1
-6 13 7 14 12 30 22 37 22 6 0 18 10 26 22 9 12 16 17 16 10 0 -7 5 -10 10 -7
6 4 8 11 5 16 -4 5 -2 9 3 9 5 0 9 6 9 13 1 22 8 42 18 49 6 5 6 8 -2 8 -8 0
-9 9 -4 28 4 15 7 39 6 55 -1 15 2 27 5 27 7 0 8 5 12 60 2 19 7 41 12 49 7
10 6 12 -4 6 -10 -6 -11 -4 -5 11 7 17 11 54 14 127 1 20 5 26 14 21 9 -6 9
-4 -1 8 -7 9 -9 19 -4 22 11 6 10 96 -1 114 -5 7 -3 12 4 12 8 0 8 4 -1 15 -7
8 -9 15 -5 15 4 0 2 6 -4 13 -6 8 -8 17 -4 20 3 4 1 7 -7 7 -10 0 -10 3 0 15
9 10 9 15 1 15 -6 0 -10 3 -9 8 1 4 -4 20 -10 35 -7 16 -12 33 -12 38 0 5 -4
9 -10 9 -5 0 -10 7 -10 16 0 8 -5 12 -10 9 -6 -3 -13 1 -16 10 -6 13 -8 14
-15 3 -7 -10 -9 -10 -9 2 0 13 -1 13 -10 0 -6 -10 -10 -11 -10 -2 0 6 -5 12
-11 12 -5 0 -7 -5 -4 -11 4 -6 -2 -5 -13 2 -12 7 -18 17 -16 21 3 4 -3 8 -13
8 -15 0 -16 2 -3 10 12 7 12 10 1 10 -9 0 -11 6 -6 18 4 9 8 29 8 44 0 15 4
25 9 22 4 -3 8 6 8 20 0 14 5 26 10 26 6 0 10 5 10 11 0 5 -6 7 -12 3 -7 -4
-5 2 5 13 14 16 15 22 5 26 -11 4 -11 6 0 6 7 1 10 6 7 11 -3 6 -1 10 5 10 6
0 10 8 8 18 -2 9 2 16 9 15 7 -2 10 4 6 13 -3 9 0 20 8 25 12 7 12 9 0 9 -10
0 -11 3 -2 13 6 8 7 18 3 22 -4 5 -1 5 6 1 12 -7 13 -6 17 33 1 13 9 27 16 32
12 7 11 9 -1 9 -12 0 -12 2 -2 8 7 5 15 21 18 35 2 15 8 37 13 50 5 14 8 37 7
51 -3 20 0 26 11 22 9 -4 11 -2 7 6 -10 17 -9 61 1 79 13 20 15 40 4 33 -5 -3
-9 -1 -9 5 0 5 5 13 11 17 8 4 7 9 -2 15 -11 7 -11 9 2 9 16 0 18 46 3 72 -6
10 -3 9 10 -1 16 -13 16 -12 7 10 -20 50 -24 64 -22 76 1 6 -3 14 -8 18 -6 3
-8 11 -5 18 2 7 -4 22 -16 32 -11 10 -20 22 -20 27 0 15 -27 38 -35 30 -5 -4
-6 1 -2 10 3 9 0 19 -9 22 -8 3 -14 15 -14 26 0 18 -10 25 -32 21 -5 0 -7 5
-5 12 1 6 -4 11 -11 9 -10 -2 -10 2 -1 19 6 12 7 19 2 16 -5 -3 -15 3 -23 13
-8 10 -18 16 -23 13 -6 -4 -7 -1 -2 7 5 8 1 18 -10 27 -14 9 -15 13 -4 13 11
1 10 4 -3 14 -10 7 -15 16 -11 19 3 4 1 7 -5 7 -7 0 -11 3 -11 8 3 20 -2 32
-16 32 -9 0 -12 6 -8 18 3 9 3 14 -1 10 -13 -11 -55 33 -51 53 3 12 -1 16 -11
12 -8 -3 -14 -1 -12 4 2 6 -6 19 -17 29 -11 11 -16 16 -11 12 23 -18 25 -6 4
17 -13 13 -29 31 -37 40 -7 9 -20 14 -28 11 -10 -4 -13 -2 -10 8 3 8 -1 13
-11 12 -9 0 -16 5 -14 12 2 10 -2 10 -17 2 -13 -7 -22 -7 -26 0 -4 6 -11 8
-16 5 -5 -3 -6 1 -3 10 5 11 2 14 -12 8 -12 -4 -15 -3 -10 5 4 8 2 10 -7 6 -8
-3 -21 2 -30 10 -9 9 -23 16 -31 16 -9 0 -16 5 -16 11 0 7 -12 9 -31 7 -24 -4
-33 -1 -36 13 -4 12 -12 16 -30 13 -18 -3 -23 -1 -17 8 4 7 4 10 -1 6 -4 -4
-14 -3 -22 3 -7 6 -13 8 -13 4 0 -4 -8 -1 -17 6 -9 8 -14 9 -10 3 3 -6 0 -11
-7 -11 -8 0 -12 7 -8 15 3 10 1 13 -6 8 -7 -4 -12 -3 -12 2 0 10 -30 9 -47 -1
-6 -4 -14 -3 -17 2 -3 4 -16 9 -28 9 -40 2 -62 8 -66 20 -2 7 -8 9 -14 6 -11
-7 -67 -7 -125 -1 -18 2 -35 -2 -37 -7 -3 -6 -5 -5 -5 2 -1 9 -6 10 -20 2 -14
-7 -21 -6 -24 3 -4 9 -8 9 -15 -2 -6 -8 -12 -9 -16 -3 -4 7 -17 7 -35 2 -19
-5 -33 -4 -40 3 -8 8 -11 6 -11 -8 0 -16 -2 -17 -9 -6 -8 13 -12 13 -27 0 -10
-8 -15 -9 -11 -3 4 7 -3 14 -18 16 -19 4 -23 2 -15 -7z m-560 -225 c0 -5 -5
-10 -11 -10 -5 0 -7 5 -4 10 3 6 8 10 11 10 2 0 4 -4 4 -10z m1760 -2426 c0
-8 -5 -12 -10 -9 -6 4 -8 11 -5 16 9 14 15 11 15 -7z m-2820 -1508 c0 -3 -4
-8 -10 -11 -5 -3 -10 -1 -10 4 0 6 5 11 10 11 6 0 10 -2 10 -4z m-340 -56 c0
-5 -5 -10 -11 -10 -5 0 -7 5 -4 10 3 6 8 10 11 10 2 0 4 -4 4 -10z m4715 -19
c3 -5 2 -12 -3 -15 -5 -3 -9 1 -9 9 0 17 3 19 12 6z"/>
<path d="M5867 7629 c7 -7 15 -10 18 -7 3 3 -2 9 -12 12 -14 6 -15 5 -6 -5z"/>
</g>
</svg>
